<?xml version="1.0" standalone="no"?>
<!DOCTYPE svg PUBLIC "-//W3C//DTD SVG 20010904//EN"
 "http://www.w3.org/TR/2001/REC-SVG-20010904/DTD/svg10.dtd">
<svg version="1.0" xmlns="http://www.w3.org/2000/svg"
 width="300.000000pt" height="300.000000pt" viewBox="0 0 300.000000 300.000000"
 preserveAspectRatio="xMidYMid meet">
<metadata>
Created by potrace 1.11, written by Peter Selinger 2001-2013
</metadata>
<g transform="translate(0.000000,300.000000) scale(0.100000,-0.100000)"
fill="#000000" stroke="none">
<path d="M2706 2818 c5 -7 -27 -12 -83 -11 -12 0 -20 -3 -18 -7 2 -4 -14 -7
-36 -8 -23 -1 -46 -5 -52 -9 -11 -7 -30 -11 -67 -15 -8 -1 -25 -7 -38 -14 -14
-7 -33 -11 -43 -9 -11 2 -19 0 -19 -6 0 -5 -7 -9 -16 -9 -17 0 -97 -31 -157
-61 -22 -10 -43 -16 -48 -13 -5 3 -9 -3 -9 -12 0 -10 -3 -14 -7 -11 -3 4 -17
0 -30 -8 -13 -9 -23 -12 -23 -8 0 5 -4 3 -8 -2 -9 -13 -111 -75 -123 -75 -5 0
-9 -4 -9 -10 0 -5 -7 -10 -15 -10 -8 0 -15 -4 -15 -10 0 -5 -12 -16 -27 -24
-16 -8 -38 -24 -50 -36 -13 -11 -23 -19 -23 -16 0 5 -54 -42 -111 -96 -21 -21
-44 -38 -50 -38 -5 0 -7 -4 -4 -10 3 -5 -1 -10 -9 -10 -9 0 -15 -6 -13 -12 1
-7 -4 -12 -10 -11 -7 2 -13 -1 -13 -5 0 -14 -67 -82 -74 -75 -3 3 -6 -1 -6
-10 0 -8 -11 -24 -25 -35 -13 -11 -21 -22 -18 -26 3 -3 1 -6 -5 -6 -6 0 -22
-16 -35 -35 -13 -19 -27 -32 -30 -28 -4 3 -7 0 -7 -8 0 -8 -16 -30 -35 -49
-19 -19 -35 -38 -35 -42 0 -7 -22 -36 -47 -63 -7 -7 -10 -14 -8 -17 2 -2 -9
-4 -25 -3 -17 0 -30 4 -30 9 0 5 -7 3 -15 -4 -8 -7 -15 -8 -15 -3 0 5 -12 9
-27 8 -16 0 -43 2 -60 6 -22 5 -33 3 -33 -5 0 -6 -5 -4 -10 4 -5 8 -10 10 -10
5 0 -6 -12 -10 -27 -9 -16 1 -38 -3 -50 -7 -15 -6 -23 -5 -23 2 0 8 -4 8 -13
0 -8 -6 -17 -8 -20 -4 -4 3 -7 1 -7 -6 0 -7 -6 -11 -14 -8 -8 3 -23 -3 -34
-13 -11 -10 -22 -17 -25 -14 -7 7 -145 -135 -152 -157 -4 -10 -11 -19 -16 -19
-6 0 -7 -5 -4 -10 3 -6 -1 -13 -9 -16 -9 -3 -14 -10 -11 -14 3 -5 -3 -13 -12
-19 -10 -6 -14 -11 -9 -11 5 0 1 -9 -9 -20 -10 -11 -15 -20 -12 -20 4 0 -1 -9
-11 -20 -9 -12 -17 -24 -18 -28 0 -4 -7 -20 -14 -37 -7 -16 -13 -33 -12 -37 1
-5 -2 -8 -8 -8 -6 0 -9 -3 -8 -7 1 -5 -7 -28 -18 -53 -10 -25 -18 -48 -16 -52
1 -5 -2 -8 -8 -8 -5 0 -10 -6 -10 -14 0 -8 -5 -27 -12 -43 -6 -15 -11 -31 -10
-35 1 -5 -3 -8 -9 -8 -5 0 -7 -5 -4 -10 4 -6 2 -17 -4 -24 -6 -7 -12 -21 -14
-32 -1 -10 -6 -25 -10 -31 -5 -7 -5 -13 -1 -13 3 0 -1 -12 -11 -26 -14 -22
-15 -28 -4 -35 12 -7 12 -9 0 -9 -10 0 -11 -3 -2 -13 6 -8 8 -17 4 -20 -3 -4
1 -7 11 -7 9 0 19 -7 22 -15 5 -11 11 -12 25 -4 11 5 24 7 29 4 6 -3 10 -1 10
5 0 6 5 8 10 5 6 -3 10 -2 10 4 0 6 7 8 15 5 8 -4 15 -1 15 7 0 7 3 9 7 6 3
-4 12 -2 19 4 8 6 21 9 29 5 8 -3 15 -2 15 3 0 5 12 12 28 17 35 10 57 18 112
41 8 3 17 7 20 7 3 1 11 5 18 9 6 5 17 5 22 2 6 -3 10 -1 10 4 0 6 5 10 12 9
16 -4 105 -92 100 -100 -2 -5 5 -8 14 -8 10 0 15 -3 12 -6 -8 -7 36 -54 51
-54 6 0 11 -4 11 -8 0 -5 56 -67 125 -138 87 -89 123 -133 119 -144 -4 -8 -6
-23 -6 -32 0 -10 -4 -18 -10 -18 -6 0 -8 -9 -5 -20 3 -11 1 -20 -4 -20 -5 0
-8 -3 -7 -8 1 -8 -10 -58 -19 -82 -3 -8 -7 -19 -8 -25 -2 -5 -9 -30 -16 -55
-7 -25 -12 -48 -11 -52 1 -5 -3 -8 -10 -8 -6 0 -9 -3 -6 -6 4 -3 2 -19 -2 -35
-5 -17 -5 -31 1 -35 5 -3 6 -11 3 -17 -4 -7 -4 -9 1 -5 4 4 15 0 24 -10 9 -9
23 -16 31 -16 8 1 21 2 28 3 7 0 11 5 8 9 -5 9 2 11 48 14 14 1 24 6 23 11 -1
5 5 11 13 12 8 2 32 10 52 19 21 9 39 15 41 14 1 -2 15 7 31 19 16 13 32 20
36 18 5 -3 11 -1 15 4 3 5 30 21 60 36 30 14 55 30 55 35 0 6 4 9 8 8 9 -3
125 70 161 101 13 12 28 21 33 21 5 0 7 4 3 9 -3 5 3 12 12 16 43 14 153 184
153 235 0 10 6 21 13 23 9 4 9 6 -1 6 -10 1 -10 6 -2 21 8 15 8 20 -1 20 -9 0
-9 3 0 14 8 10 9 16 1 21 -6 3 -7 12 -3 18 11 17 10 61 -2 69 -6 5 -5 8 4 8
11 0 11 3 1 15 -10 12 -10 15 0 15 9 0 9 4 3 13 -6 6 -11 30 -13 52 -1 22 -2
48 -3 58 -1 9 -5 17 -11 17 -5 0 8 16 28 35 21 19 42 35 47 35 5 0 8 3 7 8 -3
9 110 120 117 114 3 -3 5 0 5 6 0 15 37 52 52 52 6 0 8 3 5 6 -4 4 9 22 28 40
19 18 35 36 35 41 0 5 8 15 18 24 16 14 38 41 101 124 17 22 35 45 40 51 4 5
14 21 21 34 7 14 18 30 24 37 29 32 36 43 31 43 -3 0 6 17 20 37 14 21 25 43
25 49 0 7 3 14 8 16 9 4 46 80 44 91 -1 4 3 7 9 7 5 0 7 5 4 10 -3 6 0 12 7
15 7 3 14 17 15 31 0 15 7 30 13 34 7 4 9 13 6 19 -4 6 -2 11 3 11 6 0 11 9
11 20 0 11 5 20 11 20 5 0 8 4 5 9 -3 4 3 32 14 61 11 29 17 57 14 61 -3 5 0
9 6 9 6 0 8 5 5 10 -3 6 -2 10 3 10 5 0 8 11 7 25 -2 14 1 25 7 25 6 0 8 6 5
14 -3 8 -1 17 6 20 8 3 8 5 -2 5 -11 1 -11 4 0 18 8 9 13 18 12 20 -2 1 -3 4
-2 6 1 1 2 13 3 27 0 14 5 31 9 38 5 7 4 12 -2 12 -6 0 -8 7 -5 15 4 8 9 13
13 11 3 -2 6 19 5 47 0 29 1 56 4 60 5 10 9 148 4 142 -6 -6 -41 28 -36 36 2
4 -9 4 -26 -1 -16 -5 -30 -5 -30 -1 0 4 -7 8 -15 8 -8 0 -12 -4 -9 -9z m-318
-387 c1 -1 4 0 6 2 7 4 66 -62 67 -75 1 -7 2 -30 4 -51 3 -32 -2 -44 -34 -77
-32 -34 -44 -40 -79 -40 -23 0 -42 5 -42 10 0 6 -3 9 -7 8 -22 -7 -55 34 -56
70 0 6 -3 12 -7 12 -18 0 0 66 28 102 18 23 32 39 32 35 0 -3 10 -3 21 2 17 6
51 7 67 2z m-250 -346 c12 -14 20 -25 17 -25 -4 0 0 -7 8 -14 24 -24 14 -92
-20 -134 -23 -28 -38 -37 -68 -40 -41 -4 -105 23 -105 45 0 7 -5 13 -11 13 -5
0 -8 4 -5 8 3 5 -1 21 -9 36 -8 14 -9 24 -3 20 6 -4 9 -1 6 7 -2 7 1 25 8 38
7 14 11 28 8 33 -3 5 -2 8 3 7 16 -4 43 13 36 24 -3 5 -1 7 5 3 6 -3 13 -2 16
3 12 18 90 1 114 -24z m-328 -302 c22 -3 70 -62 63 -79 -3 -8 0 -14 6 -14 13
0 10 -22 -4 -32 -6 -5 -5 -8 2 -8 18 0 -23 -65 -53 -85 -23 -15 -48 -20 -84
-16 -22 2 -82 59 -75 71 3 5 1 10 -6 10 -7 0 -9 3 -6 7 4 3 2 12 -4 20 -7 8
-8 13 -1 13 5 0 8 9 5 20 -3 11 0 20 6 20 6 0 11 8 11 18 0 20 42 55 73 59 11
2 23 5 25 8 3 2 10 1 16 -2 6 -4 18 -8 26 -10z"/>
<path d="M700 994 c-19 -6 -36 -16 -38 -23 -2 -6 -8 -11 -13 -11 -19 0 -90
-87 -128 -160 -14 -25 -29 -48 -35 -52 -6 -4 -8 -8 -3 -8 11 0 -44 -101 -59
-107 -8 -3 -12 -9 -9 -13 3 -5 -17 -31 -45 -59 -39 -39 -46 -51 -32 -51 11 0
31 11 46 25 14 13 26 22 26 19 0 -3 21 15 47 40 25 25 50 46 55 46 5 0 6 5 3
10 -3 6 1 10 9 10 8 0 21 8 28 18 7 9 20 18 28 20 8 2 18 9 22 15 4 7 8 8 8 3
0 -5 7 -3 16 4 21 18 16 -7 -8 -33 -9 -10 -15 -30 -13 -43 1 -13 -1 -24 -5
-24 -4 0 -11 -17 -15 -37 -4 -21 -12 -41 -18 -45 -9 -6 -8 -8 1 -8 11 0 11 -2
0 -14 -7 -8 -24 -33 -37 -55 -14 -22 -27 -38 -29 -36 -3 3 -12 -4 -19 -15 -8
-11 -18 -18 -23 -15 -4 3 -11 -2 -14 -11 -3 -8 -10 -12 -16 -9 -5 3 -10 1 -10
-4 0 -6 -3 -10 -7 -10 -5 1 -11 0 -15 -1 -17 -5 -29 -8 -50 -9 l-23 -2 23 -19
c26 -21 116 -25 141 -6 12 9 13 8 6 -3 -6 -11 -4 -13 8 -8 30 11 27 -10 -5
-34 -17 -13 -33 -22 -36 -21 -2 2 -8 -1 -12 -8 -4 -6 -16 -13 -26 -15 -10 -2
-19 -4 -19 -5 0 -1 -7 -3 -15 -5 -8 -2 -33 -9 -55 -15 -22 -7 -50 -12 -62 -13
-13 0 -23 -5 -23 -10 0 -5 -6 -7 -12 -5 -7 3 -26 -1 -42 -7 -29 -12 -29 -13
-8 -24 12 -6 22 -8 22 -2 0 5 14 6 34 1 19 -4 37 -5 40 -3 3 3 18 1 34 -5 21
-7 33 -7 41 1 7 7 11 7 11 1 0 -10 105 -12 115 -2 3 3 19 4 35 2 17 -2 30 0
30 4 0 4 9 9 20 10 43 4 50 6 50 14 0 4 4 7 9 5 11 -3 121 75 116 83 -1 3 3
11 11 18 8 7 14 9 14 5 0 -4 5 0 11 10 6 9 14 15 20 12 5 -4 9 -1 9 6 0 9 4 8
15 -1 15 -12 18 -63 3 -54 -4 3 -8 -2 -8 -11 0 -8 -7 -18 -15 -21 -8 -4 -12
-10 -9 -15 3 -5 -2 -9 -11 -9 -9 0 -14 -3 -12 -7 5 -10 -30 -43 -37 -35 -3 3
-6 0 -6 -6 0 -7 -6 -12 -13 -12 -7 0 -13 -9 -13 -20 0 -22 17 -22 56 0 14 8
27 15 30 16 30 8 70 28 70 35 0 4 7 5 17 2 10 -4 14 -2 9 5 -3 6 3 13 14 17
11 3 20 11 20 16 0 6 4 8 8 5 11 -6 142 118 142 134 0 6 5 8 10 5 6 -3 10 0
10 8 0 7 9 23 20 35 12 12 18 22 14 22 -4 0 1 9 10 19 10 11 15 25 11 30 -3 6
-1 11 6 11 7 0 9 3 6 7 -4 3 0 15 10 25 13 14 13 18 2 18 -10 1 -9 4 4 11 9 5
17 15 17 20 0 6 -5 7 -11 3 -8 -4 -8 -1 -1 13 7 12 7 25 0 38 -12 23 -69 75
-81 75 -5 0 -5 5 -2 10 3 6 1 10 -5 10 -6 0 -8 5 -5 10 3 6 1 10 -4 10 -6 0
-11 7 -11 15 0 8 -4 15 -10 15 -5 0 -10 7 -10 15 0 8 -4 15 -8 15 -4 0 -43 33
-85 73 -42 41 -77 73 -77 71 0 -1 -17 15 -38 37 -42 42 -72 47 -142 23z"/>
</g>
</svg>
